# MagicaVoxel @ Ephtracy

# group
o 

# material
mtllib Wall.mtl
usemtl palette

# normals
vn -1 0 0
vn 1 0 0
vn 0 0 1
vn 0 0 -1
vn 0 -1 0
vn 0 1 0

# texcoords
vt 0.708984 0.5
vt 0.736328 0.5
vt 0.912109 0.5
vt 0.970703 0.5
vt 0.974609 0.5
vt 0.982422 0.5
vt 0.986328 0.5
vt 0.990234 0.5
vt 0.994141 0.5

# verts
v -2 0 -1.4
v -2 0 -1.5
v -2 0 -1.6
v -2 0 -1.8
v -2 0 -2
v -2 3.6 -1.4
v -2 3.6 -1.5
v -2 4 -1.4
v -2 4 -1.5
v -2 4 -1.6
v -2 4 -1.8
v -2 4 -2
v -1.4 3 -1.3
v -1.4 3 -1.4
v -1.4 3.1 -1.3
v -1.4 3.1 -1.4
v -1.3 2.9 -1.3
v -1.3 2.9 -1.4
v -1.3 3 -1.3
v -1.3 3 -1.4
v -1.3 3.1 -1.3
v -1.3 3.1 -1.4
v -1.3 3.2 -1.3
v -1.3 3.2 -1.4
v -1.2 2.8 -1.3
v -1.2 2.8 -1.4
v -1.2 2.9 -1.3
v -1.2 2.9 -1.4
v -1.2 3.2 -1.3
v -1.2 3.2 -1.4
v -1.2 3.3 -1.3
v -1.2 3.3 -1.4
v -1.2 3.4 -1.3
v -1.2 3.4 -1.4
v -0.5 0.5 -1.4
v -0.5 0.5 -1.5
v -0.5 2.7 -1.4
v -0.5 2.7 -1.5
v -0.3 0.5 -1.4
v -0.3 0.5 -1.5
v -0.3 2.7 -1.4
v -0.3 2.7 -1.5
v -0.0999999 0.5 -1.4
v -0.0999999 0.5 -1.5
v -0.0999999 2.7 -1.4
v -0.0999999 2.7 -1.5
v 0.1 0.5 -1.4
v 0.1 0.5 -1.5
v 0.1 2.7 -1.4
v 0.1 2.7 -1.5
v 0.3 0.5 -1.4
v 0.3 0.5 -1.5
v 0.3 2.7 -1.4
v 0.3 2.7 -1.5
v 0.5 0.5 -1.4
v 0.5 0.5 -1.5
v 0.5 2.7 -1.4
v 0.5 2.7 -1.5
v 0.7 0.5 -1.4
v 0.7 0.5 -1.5
v 0.7 2.4 -1.4
v 0.7 2.4 -1.5
v 0.7 2.7 -1.4
v 0.7 2.7 -1.5
v 0.9 3 -1.3
v 0.9 3 -1.4
v 0.9 3.1 -1.3
v 0.9 3.1 -1.4
v 1 2.9 -1.3
v 1 2.9 -1.4
v 1 3 -1.3
v 1 3 -1.4
v 1 3.1 -1.3
v 1 3.1 -1.4
v 1 3.2 -1.3
v 1 3.2 -1.4
v 1.1 2.8 -1.3
v 1.1 2.8 -1.4
v 1.1 2.9 -1.3
v 1.1 2.9 -1.4
v 1.1 3.2 -1.3
v 1.1 3.2 -1.4
v 1.1 3.3 -1.3
v 1.1 3.3 -1.4
v 1.1 3.4 -1.3
v 1.1 3.4 -1.4
v -1.1 3.3 -1.3
v -1.1 3.3 -1.4
v -1.1 3.4 -1.3
v -1.1 3.4 -1.4
v -1 2.8 -1.3
v -1 2.8 -1.4
v -1 2.9 -1.3
v -1 2.9 -1.4
v -1 3.2 -1.3
v -1 3.2 -1.4
v -1 3.3 -1.3
v -1 3.3 -1.4
v -0.9 2.9 -1.3
v -0.9 2.9 -1.4
v -0.9 3 -1.3
v -0.9 3 -1.4
v -0.9 3.1 -1.3
v -0.9 3.1 -1.4
v -0.9 3.2 -1.3
v -0.9 3.2 -1.4
v -0.8 3 -1.3
v -0.8 3 -1.4
v -0.8 3.1 -1.3
v -0.8 3.1 -1.4
v -0.6 0.5 -1.4
v -0.6 0.5 -1.5
v -0.6 0.7 -1.4
v -0.6 0.7 -1.5
v -0.6 2.7 -1.4
v -0.6 2.7 -1.5
v -0.4 0.5 -1.4
v -0.4 0.5 -1.5
v -0.4 2.7 -1.4
v -0.4 2.7 -1.5
v -0.2 0.5 -1.4
v -0.2 0.5 -1.5
v -0.2 2.7 -1.4
v -0.2 2.7 -1.5
v 2.38419e-007 0.5 -1.4
v 2.38419e-007 0.5 -1.5
v 2.38419e-007 2.7 -1.4
v 2.38419e-007 2.7 -1.5
v 0.2 0.5 -1.4
v 0.2 0.5 -1.5
v 0.2 2.7 -1.4
v 0.2 2.7 -1.5
v 0.4 0.5 -1.4
v 0.4 0.5 -1.5
v 0.4 2.7 -1.4
v 0.4 2.7 -1.5
v 0.6 0.5 -1.4
v 0.6 0.5 -1.5
v 0.6 2.7 -1.4
v 0.6 2.7 -1.5
v 1.2 3.3 -1.3
v 1.2 3.3 -1.4
v 1.2 3.4 -1.3
v 1.2 3.4 -1.4
v 1.3 2.8 -1.3
v 1.3 2.8 -1.4
v 1.3 2.9 -1.3
v 1.3 2.9 -1.4
v 1.3 3.2 -1.3
v 1.3 3.2 -1.4
v 1.3 3.3 -1.3
v 1.3 3.3 -1.4
v 1.4 2.9 -1.3
v 1.4 2.9 -1.4
v 1.4 3 -1.3
v 1.4 3 -1.4
v 1.4 3.1 -1.3
v 1.4 3.1 -1.4
v 1.4 3.2 -1.3
v 1.4 3.2 -1.4
v 1.5 3 -1.3
v 1.5 3 -1.4
v 1.5 3.1 -1.3
v 1.5 3.1 -1.4
v 2 0 -1.4
v 2 0 -1.5
v 2 0 -1.6
v 2 0 -1.8
v 2 0 -2
v 2 4 -1.4
v 2 4 -1.5
v 2 4 -1.6
v 2 4 -1.8
v 2 4 -2
v -1.4 3 -1.3
v -1.4 3.1 -1.3
v -1.3 2.9 -1.3
v -1.3 3 -1.3
v -1.3 3.1 -1.3
v -1.3 3.2 -1.3
v -1.2 2.8 -1.3
v -1.2 2.9 -1.3
v -1.2 3.2 -1.3
v -1.2 3.3 -1.3
v -1.2 3.4 -1.3
v -1.1 3.1 -1.3
v -1.1 3.2 -1.3
v -1.1 3.3 -1.3
v -1.1 3.4 -1.3
v -1 2.8 -1.3
v -1 2.9 -1.3
v -1 3.1 -1.3
v -1 3.2 -1.3
v -1 3.3 -1.3
v -0.9 2.9 -1.3
v -0.9 3 -1.3
v -0.9 3.1 -1.3
v -0.9 3.2 -1.3
v -0.8 3 -1.3
v -0.8 3.1 -1.3
v 0.9 3 -1.3
v 0.9 3.1 -1.3
v 1 2.9 -1.3
v 1 3 -1.3
v 1 3.1 -1.3
v 1 3.2 -1.3
v 1.1 2.8 -1.3
v 1.1 2.9 -1.3
v 1.1 3.2 -1.3
v 1.1 3.3 -1.3
v 1.1 3.4 -1.3
v 1.2 3.1 -1.3
v 1.2 3.2 -1.3
v 1.2 3.3 -1.3
v 1.2 3.4 -1.3
v 1.3 2.8 -1.3
v 1.3 2.9 -1.3
v 1.3 3.1 -1.3
v 1.3 3.2 -1.3
v 1.3 3.3 -1.3
v 1.4 2.9 -1.3
v 1.4 3 -1.3
v 1.4 3.1 -1.3
v 1.4 3.2 -1.3
v 1.5 3 -1.3
v 1.5 3.1 -1.3
v -2 0 -1.4
v -2 3.6 -1.4
v -2 4 -1.4
v -1.9 3.6 -1.4
v -1.9 3.7 -1.4
v -1.8 3.7 -1.4
v -1.8 3.8 -1.4
v -1.7 3.8 -1.4
v -1.7 3.9 -1.4
v -1.6 3.9 -1.4
v -1.6 4 -1.4
v -1.4 3 -1.4
v -1.4 3.1 -1.4
v -1.3 2.9 -1.4
v -1.3 3 -1.4
v -1.3 3.1 -1.4
v -1.3 3.2 -1.4
v -1.2 2.8 -1.4
v -1.2 2.9 -1.4
v -1.2 3.2 -1.4
v -1.2 3.3 -1.4
v -1.2 3.4 -1.4
v -1.1 3.3 -1.4
v -1.1 3.4 -1.4
v -1 2.8 -1.4
v -1 2.9 -1.4
v -1 3.2 -1.4
v -1 3.3 -1.4
v -0.9 0.4 -1.4
v -0.9 0.5 -1.4
v -0.9 2.9 -1.4
v -0.9 3 -1.4
v -0.9 3.1 -1.4
v -0.9 3.2 -1.4
v -0.8 0.5 -1.4
v -0.8 0.8 -1.4
v -0.8 3 -1.4
v -0.8 3.1 -1.4
v -0.7 0.3 -1.4
v -0.7 0.4 -1.4
v -0.7 0.7 -1.4
v -0.7 0.8 -1.4
v -0.6 0.3 -1.4
v -0.6 0.4 -1.4
v -0.6 0.5 -1.4
v -0.6 0.7 -1.4
v -0.6 2.7 -1.4
v -0.5 0.4 -1.4
v -0.5 0.5 -1.4
v -0.5 2.7 -1.4
v -0.4 0.5 -1.4
v -0.4 2.7 -1.4
v -0.3 0.5 -1.4
v -0.3 2.7 -1.4
v -0.2 0.5 -1.4
v -0.2 2.7 -1.4
v -0.0999999 0.5 -1.4
v -0.0999999 2.7 -1.4
v 2.38419e-007 0.5 -1.4
v 2.38419e-007 2.7 -1.4
v 0.1 0.5 -1.4
v 0.1 2.7 -1.4
v 0.2 0.5 -1.4
v 0.2 2.7 -1.4
v 0.3 0.5 -1.4
v 0.3 2.7 -1.4
v 0.4 0.5 -1.4
v 0.4 2.7 -1.4
v 0.5 0.5 -1.4
v 0.5 2.7 -1.4
v 0.5 2.8 -1.4
v 0.6 0.5 -1.4
v 0.6 2.7 -1.4
v 0.6 2.8 -1.4
v 0.6 2.9 -1.4
v 0.7 0.5 -1.4
v 0.7 2.4 -1.4
v 0.7 2.7 -1.4
v 0.7 2.8 -1.4
v 0.7 2.9 -1.4
v 0.8 2.4 -1.4
v 0.8 2.8 -1.4
v 0.9 3 -1.4
v 0.9 3.1 -1.4
v 1 2.9 -1.4
v 1 3 -1.4
v 1 3.1 -1.4
v 1 3.2 -1.4
v 1.1 2.8 -1.4
v 1.1 2.9 -1.4
v 1.1 3.2 -1.4
v 1.1 3.3 -1.4
v 1.1 3.4 -1.4
v 1.2 3.3 -1.4
v 1.2 3.4 -1.4
v 1.3 2.8 -1.4
v 1.3 2.9 -1.4
v 1.3 3.2 -1.4
v 1.3 3.3 -1.4
v 1.4 2.9 -1.4
v 1.4 3 -1.4
v 1.4 3.1 -1.4
v 1.4 3.2 -1.4
v 1.5 3 -1.4
v 1.5 3.1 -1.4
v 2 0 -1.4
v 2 4 -1.4
v -0.6 0.5 -1.5
v -0.6 0.7 -1.5
v -0.6 2.7 -1.5
v -0.5 0.5 -1.5
v -0.5 2.7 -1.5
v -0.4 0.5 -1.5
v -0.4 2.7 -1.5
v -0.3 0.5 -1.5
v -0.3 2.7 -1.5
v -0.2 0.5 -1.5
v -0.2 2.7 -1.5
v -0.0999999 0.5 -1.5
v -0.0999999 2.7 -1.5
v 2.38419e-007 0.5 -1.5
v 2.38419e-007 2.7 -1.5
v 0.1 0.5 -1.5
v 0.1 2.7 -1.5
v 0.2 0.5 -1.5
v 0.2 2.7 -1.5
v 0.3 0.5 -1.5
v 0.3 2.7 -1.5
v 0.4 0.5 -1.5
v 0.4 2.7 -1.5
v 0.5 0.5 -1.5
v 0.5 2.7 -1.5
v 0.6 0.5 -1.5
v 0.6 2.7 -1.5
v 0.7 0.5 -1.5
v 0.7 2.4 -1.5
v 0.7 2.7 -1.5
v -2 0 -2
v -2 4 -2
v 2 0 -2
v 2 4 -2
v -2 0 -1.4
v 2 0 -1.4
v -2 0 -1.5
v 2 0 -1.5
v -2 0 -1.6
v 2 0 -1.6
v -2 0 -1.8
v 2 0 -1.8
v -2 0 -2
v 2 0 -2
v -0.6 2.7 -1.4
v -0.5 2.7 -1.4
v -0.4 2.7 -1.4
v -0.3 2.7 -1.4
v -0.2 2.7 -1.4
v -0.0999999 2.7 -1.4
v 2.38419e-007 2.7 -1.4
v 0.1 2.7 -1.4
v 0.2 2.7 -1.4
v 0.3 2.7 -1.4
v 0.4 2.7 -1.4
v 0.5 2.7 -1.4
v 0.6 2.7 -1.4
v 0.7 2.7 -1.4
v -0.6 2.7 -1.5
v -0.5 2.7 -1.5
v -0.4 2.7 -1.5
v -0.3 2.7 -1.5
v -0.2 2.7 -1.5
v -0.0999999 2.7 -1.5
v 2.38419e-007 2.7 -1.5
v 0.1 2.7 -1.5
v 0.2 2.7 -1.5
v 0.3 2.7 -1.5
v 0.4 2.7 -1.5
v 0.5 2.7 -1.5
v 0.6 2.7 -1.5
v 0.7 2.7 -1.5
v -1.2 2.8 -1.3
v -1 2.8 -1.3
v 1.1 2.8 -1.3
v 1.3 2.8 -1.3
v -1.2 2.8 -1.4
v -1 2.8 -1.4
v 1.1 2.8 -1.4
v 1.3 2.8 -1.4
v -1.3 2.9 -1.3
v -1.2 2.9 -1.3
v -1 2.9 -1.3
v -0.9 2.9 -1.3
v 1 2.9 -1.3
v 1.1 2.9 -1.3
v 1.3 2.9 -1.3
v 1.4 2.9 -1.3
v -1.3 2.9 -1.4
v -1.2 2.9 -1.4
v -1 2.9 -1.4
v -0.9 2.9 -1.4
v 1 2.9 -1.4
v 1.1 2.9 -1.4
v 1.3 2.9 -1.4
v 1.4 2.9 -1.4
v -1.4 3 -1.3
v -1.3 3 -1.3
v -0.9 3 -1.3
v -0.8 3 -1.3
v 0.9 3 -1.3
v 1 3 -1.3
v 1.4 3 -1.3
v 1.5 3 -1.3
v -1.4 3 -1.4
v -1.3 3 -1.4
v -0.9 3 -1.4
v -0.8 3 -1.4
v 0.9 3 -1.4
v 1 3 -1.4
v 1.4 3 -1.4
v 1.5 3 -1.4
v -0.6 0.5 -1.4
v -0.5 0.5 -1.4
v -0.4 0.5 -1.4
v -0.3 0.5 -1.4
v -0.2 0.5 -1.4
v -0.0999999 0.5 -1.4
v 2.38419e-007 0.5 -1.4
v 0.1 0.5 -1.4
v 0.2 0.5 -1.4
v 0.3 0.5 -1.4
v 0.4 0.5 -1.4
v 0.5 0.5 -1.4
v 0.6 0.5 -1.4
v 0.7 0.5 -1.4
v -0.6 0.5 -1.5
v -0.5 0.5 -1.5
v -0.4 0.5 -1.5
v -0.3 0.5 -1.5
v -0.2 0.5 -1.5
v -0.0999999 0.5 -1.5
v 2.38419e-007 0.5 -1.5
v 0.1 0.5 -1.5
v 0.2 0.5 -1.5
v 0.3 0.5 -1.5
v 0.4 0.5 -1.5
v 0.5 0.5 -1.5
v 0.6 0.5 -1.5
v 0.7 0.5 -1.5
v -1.4 3.1 -1.3
v -1.3 3.1 -1.3
v -0.9 3.1 -1.3
v -0.8 3.1 -1.3
v 0.9 3.1 -1.3
v 1 3.1 -1.3
v 1.4 3.1 -1.3
v 1.5 3.1 -1.3
v -1.4 3.1 -1.4
v -1.3 3.1 -1.4
v -0.9 3.1 -1.4
v -0.8 3.1 -1.4
v 0.9 3.1 -1.4
v 1 3.1 -1.4
v 1.4 3.1 -1.4
v 1.5 3.1 -1.4
v -1.3 3.2 -1.3
v -1.2 3.2 -1.3
v -1 3.2 -1.3
v -0.9 3.2 -1.3
v 1 3.2 -1.3
v 1.1 3.2 -1.3
v 1.3 3.2 -1.3
v 1.4 3.2 -1.3
v -1.3 3.2 -1.4
v -1.2 3.2 -1.4
v -1 3.2 -1.4
v -0.9 3.2 -1.4
v 1 3.2 -1.4
v 1.1 3.2 -1.4
v 1.3 3.2 -1.4
v 1.4 3.2 -1.4
v -1.1 3.3 -1.3
v -1 3.3 -1.3
v 1.2 3.3 -1.3
v 1.3 3.3 -1.3
v -1.1 3.3 -1.4
v -1 3.3 -1.4
v 1.2 3.3 -1.4
v 1.3 3.3 -1.4
v -1.2 3.4 -1.3
v -1.1 3.4 -1.3
v 1.1 3.4 -1.3
v 1.2 3.4 -1.3
v -1.2 3.4 -1.4
v -1.1 3.4 -1.4
v 1.1 3.4 -1.4
v 1.2 3.4 -1.4
v -2 4 -1.4
v -1.6 4 -1.4
v 2 4 -1.4
v -2 4 -1.5
v -1.6 4 -1.5
v 2 4 -1.5
v -2 4 -1.6
v 2 4 -1.6
v -2 4 -1.8
v 2 4 -1.8
v -2 4 -2
v 2 4 -2

# faces
f 6/6/1 2/6/1 1/6/1
f 7/7/1 3/7/1 2/7/1
f 7/6/1 2/6/1 6/6/1
f 8/3/1 7/3/1 6/3/1
f 9/7/1 3/7/1 7/7/1
f 9/3/1 7/3/1 8/3/1
f 10/8/1 4/8/1 3/8/1
f 10/7/1 3/7/1 9/7/1
f 11/9/1 5/9/1 4/9/1
f 11/8/1 4/8/1 10/8/1
f 12/9/1 5/9/1 11/9/1
f 15/5/1 14/5/1 13/5/1
f 16/5/1 14/5/1 15/5/1
f 19/5/1 18/5/1 17/5/1
f 20/5/1 18/5/1 19/5/1
f 23/1/1 22/1/1 21/1/1
f 24/1/1 22/1/1 23/1/1
f 27/5/1 26/5/1 25/5/1
f 28/5/1 26/5/1 27/5/1
f 31/2/1 30/2/1 29/2/1
f 32/2/1 30/2/1 31/2/1
f 33/1/1 32/1/1 31/1/1
f 34/1/1 32/1/1 33/1/1
f 37/4/1 36/4/1 35/4/1
f 38/4/1 36/4/1 37/4/1
f 41/4/1 40/4/1 39/4/1
f 42/4/1 40/4/1 41/4/1
f 45/4/1 44/4/1 43/4/1
f 46/4/1 44/4/1 45/4/1
f 49/4/1 48/4/1 47/4/1
f 50/4/1 48/4/1 49/4/1
f 53/4/1 52/4/1 51/4/1
f 54/4/1 52/4/1 53/4/1
f 57/4/1 56/4/1 55/4/1
f 58/4/1 56/4/1 57/4/1
f 61/6/1 60/6/1 59/6/1
f 62/6/1 60/6/1 61/6/1
f 63/3/1 62/3/1 61/3/1
f 64/3/1 62/3/1 63/3/1
f 67/5/1 66/5/1 65/5/1
f 68/5/1 66/5/1 67/5/1
f 71/5/1 70/5/1 69/5/1
f 72/5/1 70/5/1 71/5/1
f 75/1/1 74/1/1 73/1/1
f 76/1/1 74/1/1 75/1/1
f 79/5/1 78/5/1 77/5/1
f 80/5/1 78/5/1 79/5/1
f 83/2/1 82/2/1 81/2/1
f 84/2/1 82/2/1 83/2/1
f 85/1/1 84/1/1 83/1/1
f 86/1/1 84/1/1 85/1/1
f 87/1/2 88/1/2 89/1/2
f 89/1/2 88/1/2 90/1/2
f 91/5/2 92/5/2 93/5/2
f 93/5/2 92/5/2 94/5/2
f 95/1/2 96/1/2 97/1/2
f 97/1/2 96/1/2 98/1/2
f 99/5/2 100/5/2 101/5/2
f 101/5/2 100/5/2 102/5/2
f 103/1/2 104/1/2 105/1/2
f 105/1/2 104/1/2 106/1/2
f 107/5/2 108/5/2 109/5/2
f 109/5/2 108/5/2 110/5/2
f 111/3/2 112/3/2 113/3/2
f 113/3/2 112/3/2 114/3/2
f 113/6/2 114/6/2 115/6/2
f 115/6/2 114/6/2 116/6/2
f 117/4/2 118/4/2 119/4/2
f 119/4/2 118/4/2 120/4/2
f 121/4/2 122/4/2 123/4/2
f 123/4/2 122/4/2 124/4/2
f 125/4/2 126/4/2 127/4/2
f 127/4/2 126/4/2 128/4/2
f 129/4/2 130/4/2 131/4/2
f 131/4/2 130/4/2 132/4/2
f 133/4/2 134/4/2 135/4/2
f 135/4/2 134/4/2 136/4/2
f 137/4/2 138/4/2 139/4/2
f 139/4/2 138/4/2 140/4/2
f 141/1/2 142/1/2 143/1/2
f 143/1/2 142/1/2 144/1/2
f 145/5/2 146/5/2 147/5/2
f 147/5/2 146/5/2 148/5/2
f 149/1/2 150/1/2 151/1/2
f 151/1/2 150/1/2 152/1/2
f 153/5/2 154/5/2 155/5/2
f 155/5/2 154/5/2 156/5/2
f 157/1/2 158/1/2 159/1/2
f 159/1/2 158/1/2 160/1/2
f 161/5/2 162/5/2 163/5/2
f 163/5/2 162/5/2 164/5/2
f 165/6/2 166/6/2 170/6/2
f 166/7/2 167/7/2 171/7/2
f 170/6/2 166/6/2 171/6/2
f 167/8/2 168/8/2 172/8/2
f 171/7/2 167/7/2 172/7/2
f 168/9/2 169/9/2 173/9/2
f 172/8/2 168/8/2 173/8/2
f 173/9/2 169/9/2 174/9/2
f 178/5/3 176/5/3 175/5/3
f 179/5/3 176/5/3 178/5/3
f 182/5/3 178/5/3 177/5/3
f 182/5/3 179/5/3 178/5/3
f 183/1/3 180/1/3 179/1/3
f 186/5/3 182/5/3 181/5/3
f 186/5/3 179/5/3 182/5/3
f 186/1/3 183/1/3 179/1/3
f 187/2/3 184/2/3 183/2/3
f 187/1/3 183/1/3 186/1/3
f 188/1/3 185/1/3 184/1/3
f 188/2/3 184/2/3 187/2/3
f 189/1/3 185/1/3 188/1/3
f 190/5/3 186/5/3 181/5/3
f 191/5/3 186/5/3 190/5/3
f 192/2/3 187/2/3 186/2/3
f 192/5/3 186/5/3 191/5/3
f 193/1/3 188/1/3 187/1/3
f 193/2/3 187/2/3 192/2/3
f 194/1/3 188/1/3 193/1/3
f 195/5/3 192/5/3 191/5/3
f 196/5/3 192/5/3 195/5/3
f 197/1/3 193/1/3 192/1/3
f 197/5/3 192/5/3 196/5/3
f 198/1/3 193/1/3 197/1/3
f 199/5/3 197/5/3 196/5/3
f 200/5/3 197/5/3 199/5/3
f 204/5/3 202/5/3 201/5/3
f 205/5/3 202/5/3 204/5/3
f 208/5/3 205/5/3 204/5/3
f 208/5/3 204/5/3 203/5/3
f 209/1/3 206/1/3 205/1/3
f 212/1/3 209/1/3 205/1/3
f 212/5/3 208/5/3 207/5/3
f 212/5/3 205/5/3 208/5/3
f 213/2/3 210/2/3 209/2/3
f 213/1/3 209/1/3 212/1/3
f 214/1/3 211/1/3 210/1/3
f 214/2/3 210/2/3 213/2/3
f 215/1/3 211/1/3 214/1/3
f 216/5/3 212/5/3 207/5/3
f 217/5/3 212/5/3 216/5/3
f 218/2/3 213/2/3 212/2/3
f 218/5/3 212/5/3 217/5/3
f 219/1/3 214/1/3 213/1/3
f 219/2/3 213/2/3 218/2/3
f 220/1/3 214/1/3 219/1/3
f 221/5/3 218/5/3 217/5/3
f 222/5/3 218/5/3 221/5/3
f 223/1/3 219/1/3 218/1/3
f 223/5/3 218/5/3 222/5/3
f 224/1/3 219/1/3 223/1/3
f 225/5/3 223/5/3 222/5/3
f 226/5/3 223/5/3 225/5/3
f 230/6/3 228/6/3 227/6/3
f 230/3/3 229/3/3 228/3/3
f 231/3/3 229/3/3 230/3/3
f 232/6/3 231/6/3 230/6/3
f 232/3/3 229/3/3 231/3/3
f 233/3/3 229/3/3 232/3/3
f 234/6/3 233/6/3 232/6/3
f 234/3/3 229/3/3 233/3/3
f 235/3/3 229/3/3 234/3/3
f 236/6/3 235/6/3 234/6/3
f 236/3/3 229/3/3 235/3/3
f 237/3/3 229/3/3 236/3/3
f 238/6/3 230/6/3 227/6/3
f 238/6/3 232/6/3 230/6/3
f 238/6/3 237/6/3 236/6/3
f 238/6/3 236/6/3 234/6/3
f 238/6/3 234/6/3 232/6/3
f 239/6/3 237/6/3 238/6/3
f 240/6/3 238/6/3 227/6/3
f 241/6/3 238/6/3 240/6/3
f 242/6/3 237/6/3 239/6/3
f 243/6/3 237/6/3 242/6/3
f 244/6/3 240/6/3 227/6/3
f 245/6/3 240/6/3 244/6/3
f 246/6/3 237/6/3 243/6/3
f 247/6/3 237/6/3 246/6/3
f 248/6/3 237/6/3 247/6/3
f 250/6/3 237/6/3 248/6/3
f 251/6/3 244/6/3 227/6/3
f 254/6/3 250/6/3 249/6/3
f 255/6/3 252/6/3 251/6/3
f 255/6/3 251/6/3 227/6/3
f 256/6/3 252/6/3 255/6/3
f 257/6/3 252/6/3 256/6/3
f 260/6/3 254/6/3 253/6/3
f 261/6/3 258/6/3 257/6/3
f 261/3/3 256/3/3 255/3/3
f 261/6/3 257/6/3 256/6/3
f 262/6/3 258/6/3 261/6/3
f 263/6/3 258/6/3 262/6/3
f 264/6/3 260/6/3 259/6/3
f 265/6/3 255/6/3 227/6/3
f 266/3/3 261/3/3 255/3/3
f 266/6/3 255/6/3 265/6/3
f 266/3/3 262/3/3 261/3/3
f 267/3/3 262/3/3 266/3/3
f 268/6/3 263/6/3 262/6/3
f 268/3/3 262/3/3 267/3/3
f 268/6/3 264/6/3 263/6/3
f 269/3/3 267/3/3 266/3/3
f 269/3/3 266/3/3 265/3/3
f 269/6/3 265/6/3 227/6/3
f 270/3/3 267/3/3 269/3/3
f 271/3/3 267/3/3 270/3/3
f 272/6/3 268/6/3 267/6/3
f 272/3/3 267/3/3 271/3/3
f 273/6/3 264/6/3 268/6/3
f 273/6/3 268/6/3 272/6/3
f 274/3/3 271/3/3 270/3/3
f 274/6/3 270/6/3 269/6/3
f 275/3/3 271/3/3 274/3/3
f 276/6/3 264/6/3 273/6/3
f 277/6/3 275/6/3 274/6/3
f 277/4/3 276/4/3 275/4/3
f 278/6/3 264/6/3 276/6/3
f 278/4/3 276/4/3 277/4/3
f 279/6/3 277/6/3 274/6/3
f 280/6/3 264/6/3 278/6/3
f 281/6/3 279/6/3 274/6/3
f 281/4/3 280/4/3 279/4/3
f 282/6/3 264/6/3 280/6/3
f 282/4/3 280/4/3 281/4/3
f 283/6/3 281/6/3 274/6/3
f 284/6/3 264/6/3 282/6/3
f 285/6/3 283/6/3 274/6/3
f 285/4/3 284/4/3 283/4/3
f 286/6/3 264/6/3 284/6/3
f 286/4/3 284/4/3 285/4/3
f 287/6/3 285/6/3 274/6/3
f 288/6/3 264/6/3 286/6/3
f 289/6/3 287/6/3 274/6/3
f 289/4/3 288/4/3 287/4/3
f 290/6/3 264/6/3 288/6/3
f 290/4/3 288/4/3 289/4/3
f 291/6/3 289/6/3 274/6/3
f 292/6/3 264/6/3 290/6/3
f 293/6/3 291/6/3 274/6/3
f 293/4/3 292/4/3 291/4/3
f 294/6/3 264/6/3 292/6/3
f 294/4/3 292/4/3 293/4/3
f 295/6/3 293/6/3 274/6/3
f 296/6/3 264/6/3 294/6/3
f 297/6/3 264/6/3 296/6/3
f 298/6/3 295/6/3 274/6/3
f 298/4/3 296/4/3 295/4/3
f 299/3/3 297/3/3 296/3/3
f 299/4/3 296/4/3 298/4/3
f 300/6/3 264/6/3 297/6/3
f 300/3/3 297/3/3 299/3/3
f 301/6/3 264/6/3 300/6/3
f 302/6/3 298/6/3 274/6/3
f 304/3/3 301/3/3 300/3/3
f 304/3/3 300/3/3 299/3/3
f 305/3/3 301/3/3 304/3/3
f 306/6/3 264/6/3 301/6/3
f 306/3/3 301/3/3 305/3/3
f 307/3/3 305/3/3 304/3/3
f 307/6/3 303/6/3 302/6/3
f 307/3/3 304/3/3 303/3/3
f 308/6/3 306/6/3 305/6/3
f 308/3/3 305/3/3 307/3/3
f 309/6/3 264/6/3 306/6/3
f 309/6/3 306/6/3 308/6/3
f 309/6/3 308/6/3 307/6/3
f 310/6/3 260/6/3 264/6/3
f 310/6/3 264/6/3 309/6/3
f 311/6/3 309/6/3 307/6/3
f 312/6/3 309/6/3 311/6/3
f 313/6/3 260/6/3 310/6/3
f 314/6/3 254/6/3 260/6/3
f 314/6/3 260/6/3 313/6/3
f 315/6/3 311/6/3 307/6/3
f 316/6/3 311/6/3 315/6/3
f 317/6/3 254/6/3 314/6/3
f 318/6/3 250/6/3 254/6/3
f 318/6/3 254/6/3 317/6/3
f 319/6/3 237/6/3 250/6/3
f 319/6/3 250/6/3 318/6/3
f 321/6/3 237/6/3 319/6/3
f 322/6/3 315/6/3 307/6/3
f 325/6/3 321/6/3 320/6/3
f 326/6/3 323/6/3 322/6/3
f 329/6/3 325/6/3 324/6/3
f 330/6/3 327/6/3 326/6/3
f 331/6/3 329/6/3 328/6/3
f 332/6/3 302/6/3 274/6/3
f 332/6/3 331/6/3 330/6/3
f 332/6/3 269/6/3 227/6/3
f 332/6/3 330/6/3 326/6/3
f 332/6/3 274/6/3 269/6/3
f 332/6/3 307/6/3 302/6/3
f 332/6/3 326/6/3 322/6/3
f 332/6/3 322/6/3 307/6/3
f 333/6/3 329/6/3 331/6/3
f 333/6/3 331/6/3 332/6/3
f 333/6/3 325/6/3 329/6/3
f 333/6/3 321/6/3 325/6/3
f 333/6/3 237/6/3 321/6/3
f 337/9/3 335/9/3 334/9/3
f 337/9/3 336/9/3 335/9/3
f 338/9/3 336/9/3 337/9/3
f 341/9/3 340/9/3 339/9/3
f 342/9/3 340/9/3 341/9/3
f 345/9/3 344/9/3 343/9/3
f 346/9/3 344/9/3 345/9/3
f 349/9/3 348/9/3 347/9/3
f 350/9/3 348/9/3 349/9/3
f 353/9/3 352/9/3 351/9/3
f 354/9/3 352/9/3 353/9/3
f 357/9/3 356/9/3 355/9/3
f 358/9/3 356/9/3 357/9/3
f 361/9/3 360/9/3 359/9/3
f 362/9/3 360/9/3 361/9/3
f 363/9/3 360/9/3 362/9/3
f 364/9/4 365/9/4 366/9/4
f 366/9/4 365/9/4 367/9/4
f 370/6/5 369/6/5 368/6/5
f 371/6/5 369/6/5 370/6/5
f 372/7/5 371/7/5 370/7/5
f 373/7/5 371/7/5 372/7/5
f 374/8/5 373/8/5 372/8/5
f 375/8/5 373/8/5 374/8/5
f 376/9/5 375/9/5 374/9/5
f 377/9/5 375/9/5 376/9/5
f 392/6/5 379/6/5 378/6/5
f 393/6/5 379/6/5 392/6/5
f 394/6/5 381/6/5 380/6/5
f 395/6/5 381/6/5 394/6/5
f 396/6/5 383/6/5 382/6/5
f 397/6/5 383/6/5 396/6/5
f 398/6/5 385/6/5 384/6/5
f 399/6/5 385/6/5 398/6/5
f 400/6/5 387/6/5 386/6/5
f 401/6/5 387/6/5 400/6/5
f 402/6/5 389/6/5 388/6/5
f 403/6/5 389/6/5 402/6/5
f 404/3/5 391/3/5 390/3/5
f 405/3/5 391/3/5 404/3/5
f 410/5/5 407/5/5 406/5/5
f 411/5/5 407/5/5 410/5/5
f 412/5/5 409/5/5 408/5/5
f 413/5/5 409/5/5 412/5/5
f 422/5/5 415/5/5 414/5/5
f 423/5/5 415/5/5 422/5/5
f 424/5/5 417/5/5 416/5/5
f 425/5/5 417/5/5 424/5/5
f 426/5/5 419/5/5 418/5/5
f 427/5/5 419/5/5 426/5/5
f 428/5/5 421/5/5 420/5/5
f 429/5/5 421/5/5 428/5/5
f 438/5/5 431/5/5 430/5/5
f 439/5/5 431/5/5 438/5/5
f 440/5/5 433/5/5 432/5/5
f 441/5/5 433/5/5 440/5/5
f 442/5/5 435/5/5 434/5/5
f 443/5/5 435/5/5 442/5/5
f 444/5/5 437/5/5 436/5/5
f 445/5/5 437/5/5 444/5/5
f 446/3/6 447/3/6 460/3/6
f 460/3/6 447/3/6 461/3/6
f 448/6/6 449/6/6 462/6/6
f 462/6/6 449/6/6 463/6/6
f 450/6/6 451/6/6 464/6/6
f 464/6/6 451/6/6 465/6/6
f 452/6/6 453/6/6 466/6/6
f 466/6/6 453/6/6 467/6/6
f 454/6/6 455/6/6 468/6/6
f 468/6/6 455/6/6 469/6/6
f 456/6/6 457/6/6 470/6/6
f 470/6/6 457/6/6 471/6/6
f 458/6/6 459/6/6 472/6/6
f 472/6/6 459/6/6 473/6/6
f 474/5/6 475/5/6 482/5/6
f 482/5/6 475/5/6 483/5/6
f 476/5/6 477/5/6 484/5/6
f 484/5/6 477/5/6 485/5/6
f 478/5/6 479/5/6 486/5/6
f 486/5/6 479/5/6 487/5/6
f 480/5/6 481/5/6 488/5/6
f 488/5/6 481/5/6 489/5/6
f 490/1/6 491/1/6 498/1/6
f 498/1/6 491/1/6 499/1/6
f 492/1/6 493/1/6 500/1/6
f 500/1/6 493/1/6 501/1/6
f 494/1/6 495/1/6 502/1/6
f 502/1/6 495/1/6 503/1/6
f 496/1/6 497/1/6 504/1/6
f 504/1/6 497/1/6 505/1/6
f 506/1/6 507/1/6 510/1/6
f 510/1/6 507/1/6 511/1/6
f 508/1/6 509/1/6 512/1/6
f 512/1/6 509/1/6 513/1/6
f 514/1/6 515/1/6 518/1/6
f 518/1/6 515/1/6 519/1/6
f 516/1/6 517/1/6 520/1/6
f 520/1/6 517/1/6 521/1/6
f 522/3/6 523/3/6 525/3/6
f 523/6/6 524/6/6 526/6/6
f 525/3/6 523/3/6 526/3/6
f 526/6/6 524/6/6 527/6/6
f 525/7/6 526/7/6 528/7/6
f 526/7/6 527/7/6 528/7/6
f 528/7/6 527/7/6 529/7/6
f 528/8/6 529/8/6 530/8/6
f 530/8/6 529/8/6 531/8/6
f 530/9/6 531/9/6 532/9/6
f 532/9/6 531/9/6 533/9/6
